<svg width="528" height="254" viewBox="0 0 528 254" fill="none" xmlns="http://www.w3.org/2000/svg">
<g id="Group 22">
<path id="Path 3" fill-rule="evenodd" clip-rule="evenodd" d="M186.361 220.675C262.064 244.368 339.904 283.887 419.596 211.705C499.289 139.523 549.39 76.2913 517.036 -5.52213C484.682 -87.3355 352.614 -36.3772 314.242 -109.499C275.869 -182.621 360.183 -248.984 323.833 -314.062C287.484 -379.14 259.534 -420.849 142.718 -379.471C25.9022 -338.092 36.6727 -232.807 -52.1601 -171.153C-140.993 -109.499 -237.104 -17.2003 -105.206 147.494C26.6915 312.188 110.659 196.981 186.361 220.675Z" stroke="#E4E4E4"/>
<path id="Path 3 Copy" fill-rule="evenodd" clip-rule="evenodd" d="M176.895 182.751C238.478 201.991 301.8 234.081 366.629 175.468C431.457 116.854 472.214 65.5093 445.895 -0.924759C419.575 -67.3588 312.14 -25.9796 280.924 -85.3557C249.708 -144.732 318.296 -198.621 288.726 -251.465C259.157 -304.31 236.42 -338.178 141.392 -304.578C46.3638 -270.978 55.1254 -185.484 -17.1389 -135.42C-89.4031 -85.3558 -167.588 -10.4076 -60.2912 123.327C47.0059 257.062 115.312 163.511 176.895 182.751Z" stroke="#E4E4E4"/>
<path id="Path 3 Copy 2" fill-rule="evenodd" clip-rule="evenodd" d="M159.188 157.583C209.15 173.281 260.522 199.465 313.117 151.64C365.711 103.815 398.777 61.9203 377.424 7.71414C356.071 -46.492 268.91 -12.7291 243.586 -61.1764C218.261 -109.624 273.905 -153.594 249.916 -196.712C225.926 -239.829 207.48 -267.464 130.385 -240.048C53.2899 -212.633 60.398 -142.875 1.77097 -102.026C-56.8561 -61.1764 -120.287 -0.0233002 -33.238 109.096C53.8108 218.215 109.227 141.884 159.188 157.583Z" stroke="#E4E4E4"/>
<path id="Path 3 Copy 5" fill-rule="evenodd" clip-rule="evenodd" d="M140.684 126.816C180.979 139.412 222.412 160.419 264.831 122.048C307.25 83.6769 333.918 50.0639 316.696 6.57298C299.475 -36.918 229.178 -9.82915 208.753 -48.6997C188.328 -87.5702 233.206 -122.848 213.858 -157.443C194.51 -192.038 179.633 -214.21 117.454 -192.213C55.2751 -170.217 61.008 -114.248 13.724 -81.4741C-33.56 -48.6997 -84.7182 0.365028 -14.5115 87.9143C55.6952 175.464 100.389 114.221 140.684 126.816Z" stroke="#E4E4E4"/>
<path id="Path 3 Copy 4" fill-rule="evenodd" clip-rule="evenodd" d="M135.917 106.954C168.827 117.249 202.666 134.421 237.31 103.057C271.953 71.6924 293.734 44.2175 279.668 8.66835C265.603 -26.8808 208.191 -4.73861 191.51 -36.511C174.828 -68.2835 211.481 -97.1196 195.679 -125.397C179.877 -153.674 167.727 -171.797 116.945 -153.818C66.1627 -135.838 70.8448 -90.0901 32.2274 -63.3006C-6.39001 -36.511 -48.1715 3.59402 9.16714 75.156C66.5058 146.718 103.008 96.6589 135.917 106.954Z" stroke="#E4E4E4"/>
<path id="Path 3 Copy 3" fill-rule="evenodd" clip-rule="evenodd" d="M126.775 92.594C153.493 100.954 180.966 114.899 209.093 89.4291C237.22 63.9595 254.903 41.6482 243.483 12.7803C232.064 -16.0876 185.452 1.89312 171.909 -23.9079C158.365 -49.7089 188.123 -73.1255 175.294 -96.0883C162.465 -119.051 152.6 -133.768 111.371 -119.168C70.142 -104.567 73.9433 -67.4171 42.5906 -45.6625C11.2378 -23.9079 -22.6838 8.65969 23.8684 66.7721C70.4205 124.884 100.056 84.2336 126.775 92.594Z" stroke="#E4E4E4"/>
</g>
</svg>
